# xmcd
#
# Track frame offsets: 
#        150
#        16390
#        36025
#        52285
#        70257
#        86542
#        110325
#        134110
#        151325
#        170572
#        186542
#        204715
#        224959
#        246270
#
# Disc length: 3556 seconds
#
# Revision: 0
# Processed by: cddbd v1.5.1PL2 Copyright (c) Steve Scherf et al.
# Submitted via: ExactAudioCopy v0.95a5
#
DISCID=df0de20e
DTITLE=이선희 - Golden
DYEAR=1996
DGENRE=Ballad
TTITLE0=나항상 그대를
TTITLE1=추억의 책장을 넘기며
TTITLE2=그리운 나라
TTITLE3=사랑이 지는 이 자리
TTITLE4=나의 거리
TTITLE5=안녕
TTITLE6=아름다운 강산
TTITLE7=J에게
TTITLE8=조각배
TTITLE9=불꽃처럼
TTITLE10=겨울애상
TTITLE11=오월의 햇살
TTITLE12=비오는 거리에 서서
TTITLE13=어디선가
EXTD=
EXTT0=
EXTT1=
EXTT2=
EXTT3=
EXTT4=
EXTT5=
EXTT6=
EXTT7=
EXTT8=
EXTT9=
EXTT10=
EXTT11=
EXTT12=
EXTT13=
PLAYORDER=
